<svg width="210" height="114" viewBox="0 0 210 114" fill="none" xmlns="http://www.w3.org/2000/svg">
<path d="M40.7506 92.0358C41.3286 91.3555 41.9066 90.6752 42.3883 89.9949H61.6557C59.3436 99.2276 52.9854 106.905 44.6041 110.987C40.5579 112.931 36.0301 114 31.2132 114C26.4927 114 21.8685 112.931 17.8224 110.987C9.44104 106.905 3.17912 99.2276 0.867034 89.9949H20.1345C22.5429 93.5908 26.589 96.0205 31.2132 96.0205C34.9704 96.0205 38.3422 94.4655 40.7506 92.0358ZM26.7817 18.2711C28.2268 17.9795 29.7682 17.8824 31.2132 17.8824H62.5228V35.9591H46.6111V38.9719C52.873 38.9719 62.1374 41.11 62.5228 53.2583C62.3301 59.7698 60.2107 65.7954 56.7425 70.7519C53.6598 75.1253 49.5173 78.624 44.6041 80.9565C40.5579 82.9003 36.0301 83.9693 31.2132 83.9693C26.4927 83.9693 21.8685 82.9003 17.8224 80.9565C16.9553 80.5678 16.1846 80.0818 15.3176 79.5959C6.16557 74.1535 0 64.046 0 52.4808V49.468C0 36.8338 7.32162 26.046 17.8224 20.9923C20.6161 19.6317 23.6026 18.6598 26.7817 18.2711ZM44.6041 49.468C44.6041 45.6777 43.159 42.3734 40.7506 39.8465C38.3422 37.4169 34.9704 35.9591 31.2132 35.9591C23.8916 35.9591 17.8224 41.9847 17.8224 49.468V52.4808C17.8224 55.3964 18.7857 58.1176 20.4235 60.3529C22.8319 63.7545 26.7817 65.9898 31.2132 65.9898C34.9704 65.9898 38.3422 64.4348 40.7506 62.0051C43.159 59.5755 44.6041 56.1739 44.6041 52.4808V49.468Z" fill="#F4AB2F"/>
<path d="M96.0937 18.0767C96.5754 17.9795 97.0571 17.9795 97.5388 17.9795H119.994V36.0563H97.5388C97.0571 36.0563 96.5754 36.0563 96.0937 36.1535C89.3501 36.8338 84.1479 42.5678 84.1479 49.5652V84.0665H66.3256V49.5652C66.3256 44.7059 67.3853 40.1381 69.312 36.0563C74.1289 25.8517 84.2443 18.5627 96.0937 18.0767Z" fill="#F4AB2F"/>
<path d="M146.516 52.578V17.9795H164.434V52.578C164.434 69.9744 150.465 84.0665 133.125 84.0665C115.88 84.0665 101.912 69.9744 101.912 52.578V39.9639H119.734V52.578C119.734 59.9642 125.803 66.087 133.125 66.087C140.543 66.087 146.516 59.9642 146.516 52.578Z" fill="#F4AB2F"/>
<path d="M195.068 63.0742C195.068 64.7263 196.416 66.087 198.054 66.087H210V84.0665H198.054C186.494 84.0665 177.245 74.6394 177.245 63.0742V36.0563H168.286V17.9795H177.245V0H195.068V17.9795H204.027V36.0563H181.235V39.0691C187.594 39.0691 195.068 39.2634 195.068 48.0102C195.068 51.8005 195.068 63.0742 195.068 63.0742Z" fill="#F4AB2F"/>
</svg>
