<svg width="140" height="147" viewBox="0 0 140 147" fill="none" xmlns="http://www.w3.org/2000/svg">
<path d="M59.685 0.862732C62.9054 0.215681 66.3405 0 69.5609 0H139.336V40.1176H103.876V46.8039C117.831 46.8039 138.478 51.549 139.336 78.5098C138.907 92.9608 134.184 106.333 126.455 117.333C119.585 127.039 110.353 134.804 99.4034 139.98C90.3862 144.294 80.2956 146.667 69.5609 146.667C59.0409 146.667 48.7356 144.294 39.7184 139.98C37.7862 139.118 36.0686 138.039 34.1364 136.961C13.7404 124.882 0 102.451 0 76.7843V70.0981C0 42.0588 16.3168 18.1176 39.7184 6.90195C45.9445 3.88234 52.6001 1.72548 59.685 0.862732ZM99.4034 70.0981C99.4034 61.6863 96.1829 54.3529 90.8156 48.7451C85.4482 43.3529 77.934 40.1176 69.5609 40.1176C53.2441 40.1176 39.7184 53.4902 39.7184 70.0981V76.7843C39.7184 83.2549 41.8653 89.2941 45.5151 94.2549C50.8825 101.804 59.685 106.765 69.5609 106.765C77.934 106.765 85.4482 103.314 90.8156 97.9215C96.1829 92.5294 99.4034 84.9804 99.4034 76.7843V70.0981Z" fill="#F3C033"/>
</svg>
