<svg width="225" height="225" viewBox="0 0 225 225" fill="none" xmlns="http://www.w3.org/2000/svg">
<path d="M112.5 0C174.632 0 225 50.368 225 112.5C225 174.632 174.632 225 112.5 225C50.368 225 1.13152e-05 174.632 0 112.5C0 50.368 50.368 0 112.5 0ZM67.0771 148.43C70.5324 162.221 79.8908 173.689 92.416 179.786C98.4627 182.689 105.373 184.286 112.428 184.286C119.626 184.286 126.393 182.689 132.439 179.786C144.965 173.689 154.468 162.221 157.923 148.43H129.129C128.409 149.446 127.544 150.462 126.681 151.479C123.081 155.108 118.042 157.43 112.428 157.43C105.517 157.43 99.4703 153.801 95.8711 148.43H67.0771ZM112.428 40.7139C110.268 40.7139 107.965 40.8585 105.806 41.2939C101.055 41.8746 96.5911 43.326 92.416 45.3584C76.7233 52.9072 65.7823 69.0215 65.7822 87.8936V92.3936C65.7822 109.669 74.9958 124.767 88.6729 132.896C89.9685 133.622 91.1204 134.348 92.416 134.929C98.4627 137.832 105.373 139.429 112.428 139.429C119.626 139.429 126.393 137.832 132.439 134.929C139.782 131.445 145.973 126.218 150.58 119.686C155.763 112.282 158.93 103.282 159.218 93.5557C158.642 75.4096 144.797 72.2149 135.439 72.2148V67.7148H159.218V40.7139H112.428ZM112.428 67.7148C118.042 67.7148 123.081 69.8924 126.681 73.5215C130.28 77.2959 132.439 82.232 132.439 87.8936V92.3936C132.439 97.91 130.28 102.991 126.681 106.62C123.081 110.249 118.043 112.572 112.428 112.572C105.805 112.572 99.9029 109.233 96.3037 104.152C93.8563 100.813 92.416 96.7486 92.416 92.3936V87.8936C92.4161 76.7156 101.486 67.715 112.428 67.7148Z" fill="#F3C033"/>
</svg>
