<svg width="468" height="253" viewBox="0 0 468 253" fill="none" xmlns="http://www.w3.org/2000/svg">
<path d="M90.8156 204.255C92.1038 202.745 93.3919 201.235 94.4654 199.725H137.404C132.252 220.216 118.082 237.255 99.4034 246.314C90.3862 250.627 80.2956 253 69.5609 253C59.0409 253 48.7355 250.627 39.7184 246.314C21.04 237.255 7.0849 220.216 1.93225 199.725H44.8711C50.2384 207.706 59.2556 213.098 69.5609 213.098C77.934 213.098 85.4482 209.647 90.8156 204.255ZM59.685 40.549C62.9054 39.902 66.3405 39.6863 69.5609 39.6863H139.336V79.8039H103.876V86.4902C117.831 86.4902 138.478 91.2353 139.336 118.196C138.907 132.647 134.184 146.02 126.455 157.02C119.585 166.726 110.353 174.49 99.4034 179.667C90.3862 183.98 80.2956 186.353 69.5609 186.353C59.0409 186.353 48.7355 183.98 39.7184 179.667C37.7862 178.804 36.0686 177.725 34.1364 176.647C13.7404 164.569 0 142.137 0 116.471V109.784C0 81.7451 16.3168 57.8039 39.7184 46.5882C45.9445 43.5686 52.6001 41.4118 59.685 40.549ZM99.4034 109.784C99.4034 101.373 96.1829 94.0392 90.8156 88.4314C85.4482 83.0392 77.934 79.8039 69.5609 79.8039C53.2441 79.8039 39.7184 93.1765 39.7184 109.784V116.471C39.7184 122.941 41.8653 128.98 45.5151 133.941C50.8825 141.49 59.685 146.451 69.5609 146.451C77.934 146.451 85.4482 143 90.8156 137.608C96.1829 132.216 99.4034 124.667 99.4034 116.471V109.784Z" fill="#5A4DE5"/>
<path d="M214.152 40.1177C215.225 39.902 216.299 39.902 217.372 39.902H267.415V80.0196H217.372C216.299 80.0196 215.225 80.0196 214.152 80.2353C199.123 81.7451 187.53 94.4706 187.53 110V186.569H147.811V110C147.811 99.2157 150.173 89.0784 154.467 80.0196C165.201 57.3726 187.744 41.1961 214.152 40.1177Z" fill="#5A4DE5"/>
<path d="M326.521 116.686V39.902H366.454V116.686C366.454 155.294 335.323 186.569 296.678 186.569C258.248 186.569 227.117 155.294 227.117 116.686V88.6918H266.836V116.686C266.836 133.078 280.361 146.667 296.678 146.667C313.21 146.667 326.521 133.078 326.521 116.686Z" fill="#5A4DE5"/>
<path d="M434.722 139.98C434.722 143.647 437.728 146.667 441.378 146.667H468V186.569H441.378C415.615 186.569 395.004 165.647 395.004 139.98V80.0196H375.037V39.902H395.004V0H434.722V39.902H454.689V80.0196H403.896V86.7059C418.066 86.7059 434.722 87.1373 434.722 106.549C434.722 114.961 434.722 139.98 434.722 139.98Z" fill="#5A4DE5"/>
</svg>
